<?xml version="1.0" standalone="no"?>
<!DOCTYPE svg PUBLIC "-//W3C//DTD SVG 20010904//EN"
 "http://www.w3.org/TR/2001/REC-SVG-20010904/DTD/svg10.dtd">
<svg version="1.0" xmlns="http://www.w3.org/2000/svg"
 width="200.000000pt" height="200.000000pt" viewBox="0 0 200.000000 200.000000"
 preserveAspectRatio="xMidYMid meet">

<g transform="translate(0.000000,200.000000) scale(0.100000,-0.100000)"
fill="#000000" stroke="none">
<path d="M1101 1190 c-36 -84 -39 -130 -8 -166 14 -16 28 -26 31 -23 4 4 5 60
4 125 l-3 119 -24 -55z"/>
<path d="M875 550 c-3 -11 -17 -28 -31 -39 -19 -15 -23 -25 -18 -50 4 -17 10
-31 14 -31 9 0 34 66 44 113 7 31 0 37 -9 7z"/>
<path d="M1440 559 c13 -6 33 -17 42 -26 17 -15 21 -15 51 -1 l32 16 -28 11
c-16 6 -49 11 -75 10 -41 0 -44 -1 -22 -10z"/>
<path d="M825 313 c4 -10 12 -31 17 -48 17 -48 26 -51 42 -14 l15 34 11 -32
c16 -43 24 -41 39 8 7 23 15 47 18 55 3 8 0 14 -6 14 -6 0 -10 -3 -9 -7 4 -15
-14 -73 -22 -73 -8 0 -26 58 -22 73 1 4 -5 7 -13 7 -8 0 -12 -6 -9 -14 3 -7
-1 -28 -9 -47 l-13 -33 -13 47 c-8 26 -18 47 -23 47 -6 0 -7 -8 -3 -17z"/>
<path d="M1350 319 c0 -5 5 -7 10 -4 6 3 10 8 10 11 0 2 -4 4 -10 4 -5 0 -10
-5 -10 -11z"/>
<path d="M1078 305 c-6 -7 4 -85 11 -85 4 0 5 14 3 31 -3 18 0 34 8 39 9 5 8
9 -3 13 -8 3 -17 4 -19 2z"/>
<path d="M992 291 c-8 -5 -12 -21 -10 -37 2 -24 8 -29 33 -31 29 -1 30 0 27
38 -4 40 -20 49 -50 30z m36 -28 c-3 -30 -25 -42 -34 -19 -9 22 2 46 21 46 12
0 15 -8 13 -27z"/>
<path d="M1164 288 c19 -11 19 -11 1 -24 -10 -8 -14 -14 -8 -14 16 0 36 28 28
40 -3 5 -14 10 -23 10 -15 -1 -14 -2 2 -12z"/>
<path d="M1218 260 c-2 -22 0 -40 4 -40 5 0 8 18 8 40 0 22 -2 40 -4 40 -2 0
-6 -18 -8 -40z"/>
<path d="M1245 290 c3 -5 8 -10 11 -10 2 0 4 5 4 10 0 6 -5 10 -11 10 -5 0 -7
-4 -4 -10z"/>
<path d="M1129 273 c-9 -29 12 -57 37 -50 17 4 17 5 -3 6 -17 1 -22 8 -25 34
-3 27 -4 29 -9 10z"/>
</g>
</svg>
