<?xml version="1.0" standalone="no"?>
<!DOCTYPE svg PUBLIC "-//W3C//DTD SVG 20010904//EN"
 "http://www.w3.org/TR/2001/REC-SVG-20010904/DTD/svg10.dtd">
<svg version="1.0" xmlns="http://www.w3.org/2000/svg"
 width="200.000000pt" height="200.000000pt" viewBox="0 0 200.000000 200.000000"
 preserveAspectRatio="xMidYMid meet">

<g transform="translate(0.000000,200.000000) scale(0.100000,-0.100000)"
fill="#000000" stroke="none">
<path d="M1612 918 l3 -102 43 -9 c62 -12 112 14 131 68 12 36 12 45 -3 77
-21 44 -67 68 -130 68 l-47 0 3 -102z"/>
<path d="M1322 794 c-11 -21 -23 -50 -27 -64 -7 -24 -5 -23 29 9 36 35 43 55
27 80 -7 11 -14 5 -29 -25z"/>
</g>
</svg>
