<svg id="svg" version="1.1" xmlns="http://www.w3.org/2000/svg" xmlns:xlink="http://www.w3.org/1999/xlink" width="400" height="400" viewBox="0, 0, 400,400"><g id="svgg"><path id="path0" d="M232.428 32.567 C 232.160 32.890,231.369 33.209,230.670 33.277 C 229.716 33.369,229.369 33.618,229.275 34.275 C 229.198 34.821,228.821 35.198,228.275 35.275 C 227.721 35.354,227.353 35.730,227.272 36.300 C 227.180 36.951,226.876 37.200,226.172 37.200 C 225.402 37.200,225.200 37.408,225.200 38.200 C 225.200 39.115,224.682 39.434,223.500 39.247 C 223.335 39.221,223.221 39.335,223.247 39.500 C 223.434 40.682,223.115 41.200,222.200 41.200 C 221.400 41.200,221.200 41.400,221.200 42.200 C 221.200 43.000,221.000 43.200,220.200 43.200 C 219.400 43.200,219.200 43.400,219.200 44.200 C 219.200 44.980,218.995 45.200,218.270 45.200 C 217.296 45.200,215.808 46.527,215.035 48.085 C 214.709 48.740,214.128 49.057,212.990 49.200 C 211.735 49.358,211.374 49.585,211.275 50.275 C 211.198 50.821,210.821 51.198,210.275 51.275 C 209.721 51.354,209.353 51.730,209.272 52.300 C 209.180 52.951,208.876 53.200,208.172 53.200 C 207.402 53.200,207.200 53.408,207.200 54.200 C 207.200 55.115,206.682 55.434,205.500 55.247 C 205.335 55.221,205.221 55.335,205.247 55.500 C 205.434 56.682,205.115 57.200,204.200 57.200 C 203.400 57.200,203.200 57.400,203.200 58.200 C 203.200 59.000,203.000 59.200,202.200 59.200 C 201.400 59.200,201.200 59.400,201.200 60.200 C 201.200 60.980,200.995 61.200,200.270 61.200 C 199.296 61.200,197.808 62.527,197.035 64.085 C 196.709 64.740,196.128 65.057,194.990 65.200 C 193.735 65.358,193.374 65.585,193.275 66.275 C 193.198 66.821,192.821 67.198,192.275 67.275 C 191.721 67.354,191.353 67.730,191.272 68.300 C 191.180 68.951,190.876 69.200,190.172 69.200 C 189.402 69.200,189.200 69.408,189.200 70.200 C 189.200 71.115,188.682 71.434,187.500 71.247 C 187.335 71.221,187.221 71.335,187.247 71.500 C 187.434 72.682,187.115 73.200,186.200 73.200 C 185.400 73.200,185.200 73.400,185.200 74.200 C 185.200 75.000,185.000 75.200,184.200 75.200 C 183.400 75.200,183.200 75.400,183.200 76.200 C 183.200 76.980,182.995 77.200,182.270 77.200 C 181.296 77.200,179.808 78.527,179.035 80.085 C 178.709 80.740,178.128 81.057,176.990 81.200 C 175.735 81.358,175.374 81.585,175.275 82.275 C 175.198 82.821,174.821 83.198,174.275 83.275 C 173.721 83.354,173.353 83.730,173.272 84.300 C 173.180 84.951,172.876 85.200,172.172 85.200 C 171.402 85.200,171.200 85.408,171.200 86.200 C 171.200 87.115,170.682 87.434,169.500 87.247 C 169.335 87.221,169.221 87.335,169.247 87.500 C 169.434 88.682,169.115 89.200,168.200 89.200 C 167.400 89.200,167.200 89.400,167.200 90.200 C 167.200 91.000,167.000 91.200,166.200 91.200 C 165.400 91.200,165.200 91.400,165.200 92.200 C 165.200 92.961,164.985 93.207,164.300 93.231 C 163.805 93.248,162.815 93.293,162.100 93.331 C 160.932 93.393,160.800 93.289,160.800 92.300 C 160.800 91.695,160.665 91.221,160.500 91.247 C 159.318 91.434,158.800 91.115,158.800 90.200 C 158.800 89.400,158.600 89.200,157.800 89.200 C 157.015 89.200,156.800 88.996,156.800 88.255 C 156.800 87.735,156.368 86.877,155.840 86.349 C 155.312 85.821,154.817 84.942,154.740 84.395 C 154.645 83.722,154.308 83.359,153.700 83.272 C 153.049 83.180,152.800 82.876,152.800 82.172 C 152.800 81.409,152.591 81.200,151.828 81.200 C 151.124 81.200,150.820 80.951,150.728 80.300 C 150.646 79.722,150.278 79.354,149.700 79.272 C 149.103 79.187,148.800 78.870,148.800 78.330 C 148.800 77.882,148.361 77.170,147.825 76.748 C 147.230 76.280,146.801 75.477,146.725 74.690 C 146.629 73.704,146.388 73.370,145.701 73.272 C 145.144 73.193,144.710 72.780,144.561 72.186 C 144.428 71.658,144.203 71.242,144.060 71.261 C 143.156 71.379,142.800 71.079,142.800 70.200 C 142.800 69.400,142.600 69.200,141.800 69.200 C 141.000 69.200,140.800 69.000,140.800 68.200 C 140.800 67.477,140.585 67.200,140.024 67.200 C 139.045 67.200,138.858 66.888,138.734 65.053 C 138.656 63.887,138.440 63.525,137.717 63.344 C 137.081 63.184,136.800 62.820,136.800 62.157 C 136.800 61.403,136.588 61.200,135.800 61.200 C 135.000 61.200,134.800 61.000,134.800 60.200 C 134.800 59.650,134.665 59.221,134.500 59.247 C 133.415 59.419,132.800 59.108,132.800 58.390 C 132.800 57.900,132.415 57.434,131.825 57.210 C 131.067 56.921,130.823 56.501,130.725 55.320 C 130.634 54.210,130.363 53.696,129.722 53.415 C 129.239 53.203,128.623 52.618,128.354 52.115 C 128.085 51.612,127.625 51.200,127.332 51.200 C 127.031 51.200,126.800 50.766,126.800 50.200 C 126.800 49.400,126.600 49.200,125.800 49.200 C 125.000 49.200,124.800 49.000,124.800 48.200 C 124.800 47.463,124.587 47.200,123.991 47.200 C 123.517 47.200,122.994 46.787,122.727 46.200 C 122.049 44.711,119.200 44.711,119.200 46.200 C 119.200 46.980,118.995 47.200,118.270 47.200 C 117.758 47.200,116.926 47.640,116.420 48.179 C 115.914 48.717,115.122 49.212,114.660 49.279 C 114.198 49.345,113.613 49.816,113.361 50.325 C 113.108 50.834,112.785 51.235,112.643 51.217 C 111.823 51.110,111.303 52.388,111.350 54.398 C 111.394 56.359,111.499 56.614,112.300 56.728 C 112.897 56.813,113.200 57.130,113.200 57.670 C 113.200 58.118,113.639 58.830,114.175 59.252 C 114.770 59.720,115.199 60.523,115.275 61.310 C 115.371 62.296,115.612 62.630,116.300 62.728 C 117.098 62.841,117.371 63.219,117.261 64.060 C 117.242 64.203,117.671 64.431,118.213 64.568 C 118.931 64.748,119.200 65.086,119.200 65.808 C 119.200 66.599,119.402 66.800,120.200 66.800 C 120.992 66.800,121.200 67.002,121.200 67.772 C 121.200 68.476,121.449 68.780,122.100 68.872 C 122.720 68.960,123.035 69.311,123.112 70.000 C 123.310 71.771,123.633 72.900,123.872 72.661 C 124.383 72.150,125.524 73.203,125.317 73.995 C 125.146 74.650,125.301 74.800,126.153 74.800 C 127.116 74.800,127.437 75.298,127.247 76.500 C 127.221 76.665,127.650 76.800,128.200 76.800 C 128.937 76.800,129.200 77.013,129.200 77.610 C 129.200 78.106,129.588 78.567,130.200 78.800 C 131.001 79.105,131.200 79.456,131.200 80.567 C 131.200 81.739,131.324 81.930,132.000 81.800 C 132.873 81.632,133.108 82.209,132.300 82.535 C 132.001 82.656,132.082 82.750,132.500 82.768 C 132.885 82.786,133.200 83.040,133.200 83.332 C 133.200 83.625,133.650 84.106,134.200 84.400 C 135.082 84.872,135.403 85.515,135.247 86.500 C 135.221 86.665,135.650 86.800,136.200 86.800 C 136.992 86.800,137.200 87.002,137.200 87.772 C 137.200 88.476,137.449 88.780,138.100 88.872 C 138.819 88.974,139.040 89.320,139.200 90.590 C 139.349 91.775,139.655 92.308,140.400 92.679 C 141.066 93.012,141.358 93.449,141.275 93.989 C 141.177 94.625,141.371 94.800,142.175 94.800 C 143.002 94.800,143.200 94.993,143.200 95.800 C 143.200 96.600,143.400 96.800,144.200 96.800 C 144.992 96.800,145.200 97.002,145.200 97.772 C 145.200 98.476,145.449 98.780,146.100 98.872 C 146.791 98.970,147.029 99.304,147.126 100.308 C 147.195 101.027,147.418 101.512,147.621 101.387 C 147.825 101.261,147.887 101.430,147.759 101.762 C 147.602 102.171,147.843 102.446,148.503 102.611 C 149.296 102.810,149.446 103.057,149.308 103.928 C 149.174 104.770,149.229 104.871,149.563 104.400 C 149.851 103.993,149.990 103.961,149.994 104.300 C 149.997 104.575,150.221 104.755,150.491 104.700 C 150.760 104.645,151.043 105.005,151.118 105.499 C 151.202 106.049,151.625 106.491,152.205 106.637 C 152.765 106.778,153.205 107.222,153.277 107.721 C 153.350 108.225,153.804 108.679,154.400 108.844 C 154.950 108.996,129.255 109.138,97.300 109.160 L 39.200 109.200 39.200 110.200 C 39.200 111.175,38.427 111.391,35.700 111.176 C 35.535 111.163,35.303 111.568,35.184 112.076 C 35.002 112.856,34.674 113.019,33.084 113.122 C 31.386 113.232,31.200 113.340,31.200 114.222 C 31.200 115.114,30.672 115.432,29.500 115.247 C 29.335 115.221,29.221 115.335,29.247 115.500 C 29.434 116.682,29.115 117.200,28.200 117.200 C 27.400 117.200,27.200 117.400,27.200 118.200 C 27.200 119.115,26.682 119.434,25.500 119.247 C 25.335 119.221,25.221 119.335,25.247 119.500 C 25.432 120.672,25.114 121.200,24.222 121.200 C 23.340 121.200,23.232 121.386,23.122 123.084 C 23.019 124.674,22.856 125.002,22.076 125.184 C 21.568 125.303,21.163 125.535,21.176 125.700 C 21.391 128.427,21.175 129.200,20.200 129.200 L 19.200 129.200 19.200 237.842 L 19.200 346.485 20.200 347.271 C 20.998 347.899,21.200 348.416,21.200 349.829 C 21.200 350.803,21.380 351.600,21.600 351.600 C 21.820 351.600,22.000 351.409,22.000 351.176 C 22.000 350.943,22.187 350.869,22.416 351.010 C 22.645 351.152,22.723 351.612,22.589 352.034 C 22.453 352.462,22.534 352.800,22.773 352.800 C 23.008 352.800,23.200 353.250,23.200 353.800 C 23.200 354.600,23.400 354.800,24.200 354.800 C 24.992 354.800,25.200 355.002,25.200 355.772 C 25.200 356.476,25.449 356.780,26.100 356.872 C 26.670 356.953,27.046 357.321,27.125 357.875 C 27.202 358.421,27.579 358.798,28.125 358.875 C 28.679 358.954,29.047 359.330,29.128 359.900 C 29.220 360.551,29.524 360.800,30.228 360.800 C 30.998 360.800,31.200 361.008,31.200 361.800 C 31.200 362.592,31.402 362.800,32.172 362.800 C 32.876 362.800,33.180 363.049,33.272 363.700 C 33.381 364.465,33.680 364.618,35.262 364.720 C 36.857 364.823,37.159 364.981,37.369 365.820 C 37.610 366.777,37.707 366.800,41.570 366.800 C 45.328 366.800,45.515 366.840,45.316 367.600 C 45.194 368.065,45.304 368.400,45.577 368.400 C 45.842 368.400,45.920 368.182,45.755 367.900 C 45.594 367.625,45.822 367.715,46.262 368.099 C 47.019 368.762,55.050 368.798,200.977 368.798 L 354.893 368.798 354.702 367.799 L 354.511 366.800 358.655 366.800 L 362.800 366.800 362.800 365.800 C 362.800 364.792,363.668 364.527,366.130 364.784 C 366.677 364.841,366.828 364.632,366.730 363.952 C 366.631 363.261,366.839 362.987,367.600 362.806 C 368.230 362.655,368.647 362.240,368.728 361.684 C 368.815 361.078,369.133 360.800,369.739 360.800 C 371.068 360.800,372.346 359.719,372.717 358.282 C 372.944 357.400,373.321 356.960,373.924 356.872 C 374.542 356.782,374.800 356.466,374.800 355.800 C 374.800 355.125,375.057 354.819,375.700 354.728 C 376.278 354.646,376.646 354.278,376.728 353.700 C 376.798 353.205,377.023 352.777,377.228 352.750 C 377.433 352.723,377.819 352.678,378.087 352.650 C 378.364 352.622,378.639 351.829,378.724 350.812 C 378.829 349.566,379.166 348.752,379.837 348.131 L 380.800 347.238 380.800 238.152 C 380.800 178.155,380.686 129.180,380.547 129.319 C 379.880 129.987,378.800 128.712,378.800 127.256 C 378.800 126.156,378.526 125.482,377.800 124.800 C 377.122 124.163,376.800 123.432,376.800 122.530 C 376.800 121.799,376.665 121.221,376.500 121.247 C 375.452 121.413,374.839 121.085,374.728 120.300 C 374.646 119.722,374.278 119.354,373.700 119.272 C 373.049 119.180,372.800 118.876,372.800 118.172 C 372.800 117.409,372.591 117.200,371.828 117.200 C 371.124 117.200,370.820 116.951,370.728 116.300 C 370.646 115.722,370.278 115.354,369.700 115.272 C 369.076 115.184,368.800 114.873,368.800 114.257 C 368.800 113.541,368.550 113.353,367.500 113.282 C 366.695 113.228,365.865 112.815,365.319 112.197 C 364.623 111.410,364.056 111.200,362.619 111.200 C 360.945 111.200,360.800 111.120,360.800 110.200 C 360.800 109.650,360.665 109.221,360.500 109.247 C 360.335 109.273,317.090 109.246,264.400 109.187 C 211.710 109.128,169.095 109.005,169.700 108.913 C 170.553 108.784,170.800 108.528,170.800 107.773 C 170.800 107.002,171.007 106.800,171.800 106.800 C 172.592 106.800,172.800 106.598,172.800 105.828 C 172.800 105.124,173.049 104.820,173.700 104.728 C 174.278 104.646,174.646 104.278,174.728 103.700 C 174.820 103.049,175.124 102.800,175.828 102.800 C 176.598 102.800,176.800 102.592,176.800 101.800 C 176.800 100.995,176.999 100.800,177.818 100.800 C 178.378 100.800,179.286 100.350,179.836 99.800 C 180.386 99.250,181.093 98.800,181.406 98.800 C 181.774 98.800,181.884 98.563,181.718 98.131 C 181.523 97.623,181.623 97.523,182.131 97.718 C 182.621 97.906,182.800 97.758,182.800 97.162 C 182.800 96.549,183.021 96.380,183.700 96.475 C 184.432 96.577,184.577 96.432,184.475 95.700 C 184.369 94.935,184.534 94.800,185.575 94.800 C 186.615 94.800,186.800 94.649,186.800 93.800 C 186.800 93.000,187.000 92.800,187.800 92.800 C 188.600 92.800,188.800 92.600,188.800 91.800 C 188.800 91.000,189.000 90.800,189.800 90.800 C 190.592 90.800,190.800 90.598,190.800 89.828 C 190.800 89.124,191.049 88.820,191.700 88.728 C 192.278 88.646,192.646 88.278,192.728 87.700 C 192.820 87.049,193.124 86.800,193.828 86.800 C 194.598 86.800,194.800 86.592,194.800 85.800 C 194.800 84.995,194.999 84.800,195.818 84.800 C 196.378 84.800,197.286 84.350,197.836 83.800 C 198.386 83.250,199.093 82.800,199.406 82.800 C 199.774 82.800,199.884 82.563,199.718 82.131 C 199.523 81.623,199.623 81.523,200.131 81.718 C 200.621 81.906,200.800 81.758,200.800 81.162 C 200.800 80.549,201.021 80.380,201.700 80.475 C 202.432 80.577,202.577 80.432,202.475 79.700 C 202.369 78.935,202.534 78.800,203.575 78.800 C 204.615 78.800,204.800 78.649,204.800 77.800 C 204.800 77.000,205.000 76.800,205.800 76.800 C 206.600 76.800,206.800 76.600,206.800 75.800 C 206.800 75.000,207.000 74.800,207.800 74.800 C 208.592 74.800,208.800 74.598,208.800 73.828 C 208.800 73.124,209.049 72.820,209.700 72.728 C 210.278 72.646,210.646 72.278,210.728 71.700 C 210.820 71.049,211.124 70.800,211.828 70.800 C 212.598 70.800,212.800 70.592,212.800 69.800 C 212.800 68.995,212.999 68.800,213.818 68.800 C 214.378 68.800,215.286 68.350,215.836 67.800 C 216.386 67.250,217.093 66.800,217.406 66.800 C 217.774 66.800,217.884 66.563,217.718 66.131 C 217.523 65.623,217.623 65.523,218.131 65.718 C 218.621 65.906,218.800 65.758,218.800 65.162 C 218.800 64.549,219.021 64.380,219.700 64.475 C 220.432 64.577,220.577 64.432,220.475 63.700 C 220.369 62.935,220.534 62.800,221.575 62.800 C 222.615 62.800,222.800 62.649,222.800 61.800 C 222.800 61.000,223.000 60.800,223.800 60.800 C 224.600 60.800,224.800 60.600,224.800 59.800 C 224.800 59.000,225.000 58.800,225.800 58.800 C 226.592 58.800,226.800 58.598,226.800 57.828 C 226.800 57.124,227.049 56.820,227.700 56.728 C 228.278 56.646,228.646 56.278,228.728 55.700 C 228.820 55.049,229.124 54.800,229.828 54.800 C 230.598 54.800,230.800 54.592,230.800 53.800 C 230.800 52.995,230.999 52.800,231.818 52.800 C 232.378 52.800,233.286 52.350,233.836 51.800 C 234.386 51.250,235.093 50.800,235.406 50.800 C 235.774 50.800,235.884 50.563,235.718 50.131 C 235.523 49.623,235.623 49.523,236.131 49.718 C 236.621 49.906,236.800 49.758,236.800 49.162 C 236.800 48.549,237.021 48.380,237.700 48.475 C 238.432 48.577,238.577 48.432,238.475 47.700 C 238.369 46.935,238.534 46.800,239.575 46.800 C 240.606 46.800,240.800 46.646,240.800 45.828 C 240.800 45.124,241.049 44.820,241.700 44.728 C 243.193 44.516,243.307 39.200,241.818 39.200 C 240.999 39.200,240.800 39.005,240.800 38.200 C 240.800 37.412,240.597 37.200,239.843 37.200 C 239.157 37.200,238.816 36.918,238.636 36.200 C 238.478 35.570,238.102 35.200,237.620 35.200 C 237.132 35.200,236.809 34.875,236.728 34.300 C 236.633 33.633,236.289 33.365,235.400 33.267 C 234.740 33.193,233.911 32.874,233.557 32.556 C 232.997 32.054,232.852 32.055,232.428 32.567 M213.829 47.829 C 213.033 48.624,213.039 48.753,213.867 48.631 C 214.233 48.578,214.578 48.233,214.631 47.867 C 214.753 47.039,214.624 47.033,213.829 47.829 M195.829 63.829 C 195.033 64.624,195.039 64.753,195.867 64.631 C 196.233 64.578,196.578 64.233,196.631 63.867 C 196.753 63.039,196.624 63.033,195.829 63.829 M177.829 79.829 C 177.033 80.624,177.039 80.753,177.867 80.631 C 178.233 80.578,178.578 80.233,178.631 79.867 C 178.753 79.039,178.624 79.033,177.829 79.829 M353.457 123.400 C 353.895 123.837,353.919 124.000,353.549 124.000 C 351.980 124.000,354.128 124.769,355.921 124.850 C 357.811 124.934,359.454 125.600,357.775 125.600 C 357.222 125.600,357.191 125.707,357.600 126.200 C 357.886 126.545,358.758 126.800,359.649 126.800 C 361.037 126.800,361.200 126.905,361.200 127.800 C 361.200 128.600,361.400 128.800,362.200 128.800 C 363.076 128.800,363.200 128.973,363.200 130.200 C 363.200 130.970,363.380 131.600,363.600 131.600 C 363.820 131.600,364.000 131.409,364.000 131.176 C 364.000 130.943,364.187 130.869,364.416 131.010 C 364.645 131.152,364.723 131.612,364.589 132.034 C 364.453 132.462,364.534 132.800,364.773 132.800 C 365.008 132.800,365.200 133.340,365.200 134.000 C 365.200 134.690,365.412 135.203,365.700 135.206 C 366.062 135.211,366.048 135.309,365.649 135.561 C 364.890 136.042,365.516 136.915,366.445 136.672 C 367.183 136.479,367.200 138.690,367.200 237.692 L 367.200 338.908 366.280 339.761 C 365.599 340.392,365.333 341.128,365.257 342.581 C 365.136 344.916,364.998 345.200,363.976 345.200 C 363.415 345.200,363.200 345.477,363.200 346.200 C 363.200 347.000,363.000 347.200,362.200 347.200 C 361.400 347.200,361.200 347.400,361.200 348.200 C 361.200 349.000,361.000 349.200,360.200 349.200 C 359.400 349.200,359.200 349.400,359.200 350.200 C 359.200 351.133,359.067 351.200,357.200 351.200 C 355.333 351.200,355.200 351.267,355.200 352.200 L 355.200 353.200 200.000 353.200 L 44.800 353.200 44.800 352.200 C 44.800 351.650,44.665 351.221,44.500 351.247 C 42.367 351.584,40.800 351.141,40.800 350.200 C 40.800 349.400,40.600 349.200,39.800 349.200 C 39.000 349.200,38.800 349.000,38.800 348.200 C 38.800 347.400,38.600 347.200,37.800 347.200 C 36.961 347.200,36.800 347.011,36.800 346.029 C 36.800 345.264,36.462 344.592,35.824 344.091 C 35.072 343.498,34.820 342.876,34.724 341.362 C 34.618 339.677,34.473 339.382,33.699 339.272 L 32.798 339.144 32.899 237.872 L 33.000 136.600 33.930 136.730 C 34.632 136.829,34.842 136.681,34.784 136.130 C 34.545 133.841,34.811 132.854,35.700 132.728 C 36.444 132.622,36.635 132.288,36.800 130.800 C 36.963 129.329,37.160 128.977,37.875 128.875 C 38.421 128.798,38.798 128.421,38.875 127.875 C 38.977 127.160,39.329 126.963,40.800 126.800 C 42.288 126.635,42.622 126.444,42.728 125.700 C 42.854 124.811,43.841 124.545,46.130 124.784 C 46.621 124.836,46.836 124.621,46.784 124.130 C 46.742 123.729,46.729 123.265,46.754 123.100 C 46.854 122.448,352.804 122.747,353.457 123.400 M57.200 236.999 L 57.200 326.800 168.700 326.794 C 230.025 326.791,280.423 326.646,280.696 326.473 C 281.088 326.224,281.171 307.505,281.096 236.779 L 281.000 147.400 169.100 147.299 L 57.200 147.199 57.200 236.999 M318.414 156.185 C 317.871 156.763,316.846 157.222,315.723 157.391 C 314.407 157.588,313.853 157.874,313.708 158.431 C 313.568 158.965,313.155 159.200,312.353 159.200 C 311.399 159.200,311.200 159.367,311.200 160.172 C 311.200 160.876,310.951 161.180,310.300 161.272 C 309.722 161.354,309.354 161.722,309.272 162.300 C 309.180 162.951,308.876 163.200,308.172 163.200 C 307.402 163.200,307.200 163.408,307.200 164.200 C 307.200 165.000,307.000 165.200,306.200 165.200 C 305.400 165.200,305.200 165.400,305.200 166.200 C 305.200 167.128,304.865 167.371,303.765 167.245 C 303.514 167.216,303.300 168.000,303.259 169.097 C 303.219 170.144,303.007 171.061,302.786 171.136 C 301.661 171.517,301.200 172.571,301.200 174.761 C 301.200 176.818,301.091 177.123,300.185 177.608 L 299.169 178.152 299.221 184.276 C 299.250 187.644,299.431 190.400,299.624 190.400 C 299.817 190.400,299.875 190.659,299.754 190.976 C 299.629 191.302,299.894 191.777,300.367 192.072 C 301.040 192.492,301.200 192.997,301.200 194.696 C 301.200 196.674,301.260 196.800,302.200 196.800 C 303.118 196.800,303.200 196.947,303.200 198.592 C 303.200 200.171,303.319 200.415,304.200 200.636 C 304.902 200.812,305.200 201.159,305.200 201.801 C 305.200 202.304,305.647 203.140,306.193 203.658 C 306.739 204.176,307.189 204.879,307.193 205.220 C 307.204 206.212,308.058 206.800,309.490 206.800 C 310.540 206.800,310.900 207.010,311.200 207.800 C 311.433 208.412,311.894 208.800,312.390 208.800 C 312.836 208.800,313.200 209.005,313.200 209.256 C 313.200 210.021,314.528 210.774,315.900 210.787 C 316.783 210.796,317.200 210.992,317.200 211.400 C 317.200 211.730,317.425 212.003,317.700 212.006 C 318.033 212.010,318.000 212.142,317.600 212.400 C 317.190 212.665,318.268 212.792,321.000 212.800 C 323.200 212.807,325.270 212.987,325.600 213.200 C 326.050 213.491,326.067 213.589,325.667 213.594 C 325.373 213.597,325.204 213.813,325.291 214.072 C 325.650 215.150,332.704 214.932,333.828 213.809 C 334.726 212.911,335.164 212.800,337.818 212.800 C 340.732 212.800,340.800 212.777,340.800 211.800 C 340.800 210.867,340.933 210.800,342.800 210.800 C 344.654 210.800,344.800 210.729,344.800 209.823 C 344.800 208.961,344.998 208.832,346.491 208.723 C 347.828 208.626,348.285 208.391,348.680 207.600 C 349.020 206.917,349.445 206.641,350.020 206.730 C 350.679 206.832,350.832 206.679,350.730 206.020 C 350.641 205.446,350.917 205.020,351.596 204.679 C 352.145 204.405,352.654 203.863,352.728 203.476 C 352.803 203.089,353.300 202.337,353.832 201.804 C 354.364 201.272,354.800 200.391,354.800 199.846 C 354.800 199.124,355.043 198.821,355.700 198.728 C 356.512 198.612,356.619 198.328,356.800 195.800 C 356.981 193.272,357.088 192.988,357.900 192.872 C 359.741 192.611,359.107 175.200,357.256 175.200 C 356.975 175.200,356.800 174.424,356.800 173.174 C 356.800 170.948,356.277 169.600,355.412 169.600 C 355.100 169.600,354.797 169.115,354.727 168.500 C 354.636 167.712,354.344 167.364,353.700 167.272 C 353.065 167.182,352.800 166.874,352.800 166.227 C 352.800 165.722,352.377 164.880,351.859 164.355 C 351.341 163.830,350.706 162.996,350.446 162.503 C 350.129 161.899,349.463 161.524,348.409 161.355 C 347.215 161.164,346.814 160.903,346.722 160.252 C 346.646 159.721,346.261 159.352,345.700 159.272 C 345.133 159.192,344.800 158.868,344.800 158.396 C 344.800 157.388,344.107 157.012,343.877 157.895 C 343.703 158.561,343.690 158.561,343.646 157.900 C 343.612 157.376,343.249 157.200,342.200 157.200 C 341.237 157.200,340.800 157.017,340.800 156.614 C 340.800 154.782,320.105 154.385,318.414 156.185 M183.256 161.991 C 184.957 162.763,186.016 162.783,226.100 162.791 L 267.200 162.800 267.200 237.000 L 267.200 311.200 170.000 311.200 L 72.800 311.200 72.800 237.000 L 72.800 162.800 125.800 162.800 C 178.267 162.800,178.808 162.792,179.600 162.000 C 180.597 161.003,181.075 161.001,183.256 161.991 M332.071 169.800 C 332.736 170.644,333.192 170.800,335.001 170.800 C 336.919 170.800,337.158 170.895,337.272 171.700 C 337.354 172.278,337.722 172.646,338.300 172.728 C 338.951 172.820,339.200 173.124,339.200 173.828 C 339.200 174.598,339.408 174.800,340.200 174.800 C 340.902 174.800,341.200 175.018,341.200 175.530 C 341.200 175.932,341.650 176.683,342.200 177.200 C 343.045 177.994,343.200 178.501,343.200 180.470 C 343.200 182.050,343.361 182.810,343.700 182.832 C 344.100 182.857,344.100 182.904,343.700 183.065 C 342.950 183.368,343.098 184.393,343.900 184.446 C 344.567 184.491,344.567 184.502,343.900 184.676 C 343.308 184.831,343.200 185.346,343.200 188.029 C 343.200 191.245,343.068 191.495,341.500 191.247 C 341.335 191.221,341.221 191.335,341.247 191.500 C 341.452 192.797,341.127 193.461,340.300 193.432 C 339.615 193.408,339.408 193.615,339.432 194.300 C 339.457 195.029,339.248 195.200,338.332 195.200 C 337.398 195.200,337.200 195.371,337.200 196.177 C 337.200 197.040,337.002 197.168,335.500 197.277 C 334.180 197.373,333.711 197.604,333.400 198.312 C 332.929 199.386,324.486 199.568,324.700 198.500 C 324.755 198.225,324.575 197.997,324.300 197.994 C 323.963 197.990,323.995 197.854,324.400 197.576 C 324.880 197.247,324.800 197.177,324.000 197.226 C 321.300 197.394,320.800 197.234,320.800 196.200 C 320.800 195.400,320.600 195.200,319.800 195.200 C 319.025 195.200,318.800 194.994,318.800 194.285 C 318.800 193.641,318.550 193.351,317.955 193.307 C 316.853 193.224,316.854 193.224,316.734 191.454 C 316.669 190.483,316.375 189.801,315.916 189.555 C 315.093 189.115,314.961 189.599,315.700 190.344 C 316.101 190.748,316.061 190.795,315.500 190.581 C 314.877 190.344,314.800 189.662,314.800 184.350 L 314.800 178.385 315.823 178.641 C 316.718 178.866,316.835 178.780,316.761 177.949 C 316.540 175.488,316.767 174.800,317.800 174.800 C 318.600 174.800,318.800 174.600,318.800 173.800 C 318.800 172.995,318.999 172.800,319.818 172.800 C 320.378 172.800,321.276 172.360,321.814 171.822 C 322.522 171.114,323.318 170.810,324.696 170.722 C 326.321 170.618,326.619 170.468,326.728 169.700 C 326.928 168.292,330.944 168.367,332.071 169.800 M305.829 223.829 C 305.304 224.353,305.200 225.642,305.200 231.622 L 305.200 238.787 328.982 238.787 L 352.764 238.787 352.764 230.994 L 352.764 223.200 329.610 223.200 C 309.095 223.200,306.386 223.272,305.829 223.829 M305.290 253.900 L 305.400 260.600 329.100 260.703 L 352.800 260.806 352.800 254.003 L 352.800 247.200 328.990 247.200 L 305.181 247.200 305.290 253.900 M138.800 257.219 C 138.800 257.559,138.250 257.642,136.962 257.497 C 135.207 257.299,135.132 257.332,135.303 258.225 C 135.401 258.740,135.373 259.148,135.241 259.133 C 135.108 259.118,134.550 259.145,134.000 259.193 L 133.000 259.280 134.000 259.569 C 134.993 259.857,134.994 259.861,134.118 260.151 C 133.343 260.407,133.221 260.768,133.118 263.121 C 133.004 265.713,132.371 266.646,131.537 265.450 C 131.393 265.243,131.303 267.757,131.337 271.037 C 131.397 276.712,131.439 277.000,132.200 277.000 C 132.918 277.000,133.012 277.307,133.122 280.000 C 133.240 282.921,134.023 285.080,134.790 284.606 C 134.986 284.485,135.203 284.884,135.273 285.493 C 135.364 286.288,135.654 286.636,136.300 286.728 C 136.951 286.820,137.200 287.124,137.200 287.828 C 137.200 288.392,137.434 288.800,137.757 288.800 C 138.064 288.800,138.434 289.115,138.581 289.500 C 138.795 290.061,138.748 290.101,138.344 289.700 C 137.568 288.930,137.122 289.107,137.598 289.996 C 137.832 290.434,138.154 290.773,138.312 290.749 C 139.394 290.586,140.354 290.903,140.581 291.500 C 140.795 292.061,140.748 292.101,140.344 291.700 C 139.600 290.962,139.114 291.093,139.553 291.912 C 139.775 292.327,140.473 292.666,141.222 292.723 C 142.867 292.848,143.200 293.067,143.200 294.024 C 143.200 294.579,143.477 294.800,144.172 294.800 C 144.876 294.800,145.180 295.049,145.272 295.700 C 145.389 296.526,145.639 296.610,148.300 296.718 C 151.197 296.835,151.483 297.008,151.247 298.500 C 151.221 298.665,154.755 298.786,159.100 298.768 C 163.445 298.751,166.781 298.648,166.514 298.540 C 165.967 298.318,166.692 296.800,167.345 296.800 C 167.539 296.800,167.474 297.070,167.200 297.400 C 166.841 297.832,166.831 298.000,167.164 298.000 C 167.417 298.000,167.729 297.730,167.855 297.400 C 168.011 296.995,168.647 296.800,169.814 296.800 C 171.181 296.800,171.706 296.591,172.329 295.800 C 172.808 295.190,173.522 294.800,174.158 294.800 C 174.827 294.800,175.200 294.581,175.200 294.187 C 175.200 293.850,175.605 293.411,176.100 293.212 C 176.595 293.013,176.841 292.839,176.646 292.825 C 176.451 292.811,176.732 292.454,177.269 292.031 C 178.068 291.403,178.215 290.992,178.074 289.787 C 177.972 288.908,177.780 288.508,177.601 288.798 C 177.190 289.464,176.724 288.663,177.041 287.836 C 177.227 287.352,177.029 287.200,176.212 287.200 C 175.553 287.200,174.676 286.737,173.938 286.000 C 173.278 285.340,172.578 284.800,172.383 284.800 C 172.187 284.800,171.115 283.990,170.000 283.000 C 168.885 282.010,167.844 281.197,167.687 281.194 C 167.529 281.191,166.336 280.201,165.036 278.994 C 163.735 277.787,162.527 276.800,162.351 276.800 C 161.965 276.800,158.881 274.256,155.440 271.100 C 154.061 269.835,152.729 268.800,152.481 268.800 C 151.599 268.800,142.240 260.538,140.800 258.488 C 139.753 256.997,138.800 256.392,138.800 257.219 M305.200 281.997 L 305.200 288.800 329.010 288.800 L 352.819 288.800 352.710 282.100 L 352.600 275.400 328.900 275.297 L 305.200 275.194 305.200 281.997 M305.200 309.997 L 305.200 316.800 329.010 316.800 L 352.819 316.800 352.710 310.100 L 352.600 303.400 328.900 303.297 L 305.200 303.194 305.200 309.997 " stroke="none" fill="#3bbcec" fill-rule="evenodd"></path><path id="path1" d="M232.253 32.341 C 231.677 32.978,231.730 33.029,232.970 33.029 C 233.852 33.029,234.246 32.864,234.124 32.545 C 233.807 31.721,232.904 31.622,232.253 32.341 M113.859 59.409 C 114.166 60.210,115.138 60.457,115.027 59.706 C 114.976 59.354,114.646 59.024,114.294 58.973 C 113.907 58.916,113.736 59.088,113.859 59.409 M146.973 76.294 C 147.024 76.646,147.354 76.976,147.706 77.027 C 148.457 77.138,148.210 76.166,147.409 75.859 C 147.088 75.736,146.916 75.907,146.973 76.294 M364.973 112.294 C 365.024 112.646,365.354 112.976,365.706 113.027 C 366.457 113.138,366.210 112.166,365.409 111.859 C 365.088 111.736,364.916 111.907,364.973 112.294 M376.973 124.294 C 377.024 124.646,377.354 124.976,377.706 125.027 C 378.457 125.138,378.210 124.166,377.409 123.859 C 377.088 123.736,376.916 123.907,376.973 124.294 M179.700 162.648 C 178.629 163.117,179.072 166.800,180.200 166.800 L 181.200 166.800 181.200 171.642 C 181.200 176.331,181.232 176.510,182.200 177.271 C 183.765 178.502,183.749 187.510,182.179 188.745 C 181.618 189.186,181.168 189.649,181.179 189.774 C 181.191 189.898,181.200 192.070,181.200 194.600 L 181.200 199.200 180.200 199.200 C 179.225 199.200,179.200 199.273,179.200 202.105 C 179.200 204.734,179.114 205.048,178.300 205.405 C 177.605 205.710,177.372 206.187,177.277 207.500 C 177.199 208.579,176.961 209.200,176.626 209.200 C 175.669 209.200,175.229 210.215,175.114 212.686 C 175.051 214.026,174.908 215.066,174.796 214.997 C 174.538 214.838,173.341 215.698,173.260 216.100 C 173.227 216.265,173.200 216.559,173.200 216.753 C 173.200 216.948,172.836 217.202,172.391 217.318 C 171.947 217.434,171.391 218.080,171.156 218.753 C 170.922 219.426,170.521 219.937,170.265 219.888 C 170.009 219.840,169.845 220.025,169.900 220.300 C 169.955 220.575,169.820 220.800,169.600 220.800 C 169.380 220.800,169.200 220.980,169.200 221.200 C 169.200 221.817,170.641 221.673,171.200 221.000 C 171.474 220.670,171.564 220.400,171.400 220.400 C 171.236 220.400,171.303 220.158,171.548 219.863 C 171.793 219.568,171.860 219.184,171.697 219.009 C 171.533 218.834,171.790 218.895,172.268 219.143 C 172.930 219.487,173.183 219.476,173.336 219.097 C 173.495 218.703,173.543 218.704,173.568 219.100 C 173.606 219.689,174.800 219.786,174.800 219.200 C 174.800 218.980,175.250 218.800,175.800 218.800 C 176.428 218.800,176.800 219.026,176.800 219.409 C 176.800 219.743,177.255 220.224,177.811 220.478 C 178.366 220.731,179.851 221.894,181.111 223.063 C 182.370 224.232,183.529 225.191,183.687 225.194 C 183.844 225.197,184.885 226.010,186.000 227.000 C 187.115 227.990,188.172 228.800,188.349 228.800 C 188.526 228.800,189.735 229.787,191.036 230.994 C 192.336 232.201,193.529 233.191,193.687 233.194 C 193.844 233.197,194.885 234.010,196.000 235.000 C 197.115 235.990,198.187 236.800,198.383 236.800 C 198.578 236.800,199.278 237.340,199.938 238.000 C 200.598 238.660,201.417 239.200,201.757 239.200 C 202.145 239.200,202.288 239.426,202.142 239.807 C 201.946 240.318,202.092 240.349,203.054 240.005 C 203.992 239.670,204.091 239.687,203.600 240.099 C 203.270 240.376,202.945 240.858,202.877 241.169 C 202.776 241.637,202.863 241.646,203.377 241.219 C 203.889 240.794,204.005 240.800,204.028 241.251 C 204.044 241.553,204.211 241.440,204.400 241.000 C 204.728 240.237,204.745 240.241,204.772 241.100 C 204.807 242.213,205.215 242.242,206.111 241.195 C 206.920 240.251,207.007 238.783,206.300 238.021 C 205.900 237.590,205.901 237.540,206.306 237.769 C 206.711 237.997,206.791 235.772,206.706 226.727 C 206.625 218.022,206.484 215.388,206.100 215.350 C 205.825 215.322,205.425 215.278,205.212 215.250 C 204.991 215.222,204.776 213.006,204.712 210.100 C 204.604 205.199,204.567 205.002,203.757 205.043 C 203.232 205.070,202.913 204.844,202.912 204.443 C 202.890 197.471,202.849 197.200,201.800 197.200 C 200.822 197.200,200.800 197.133,200.800 194.200 C 200.800 191.281,200.773 191.200,199.818 191.200 C 198.875 191.200,198.830 191.081,198.718 188.300 C 198.610 185.639,198.526 185.389,197.700 185.272 C 196.906 185.159,196.800 184.913,196.800 183.172 C 196.800 181.335,196.731 181.200,195.800 181.200 C 194.867 181.200,194.800 181.067,194.800 179.200 C 194.800 177.333,194.733 177.200,193.800 177.200 C 192.867 177.200,192.800 177.067,192.800 175.200 C 192.800 173.333,192.733 173.200,191.800 173.200 C 191.012 173.200,190.800 172.997,190.800 172.242 C 190.800 171.715,190.353 170.860,189.807 170.342 C 189.225 169.790,188.811 168.945,188.807 168.300 C 188.801 167.395,188.623 167.200,187.800 167.200 C 187.026 167.200,186.800 166.994,186.800 166.289 C 186.800 163.988,182.120 161.588,179.700 162.648 M341.859 177.409 C 342.166 178.210,343.138 178.457,343.027 177.706 C 342.976 177.354,342.646 177.024,342.294 176.973 C 341.907 176.916,341.736 177.088,341.859 177.409 M173.684 213.844 C 173.263 214.298,173.263 214.401,173.684 214.406 C 174.049 214.410,174.024 214.526,173.600 214.800 C 173.270 215.013,173.203 215.191,173.451 215.194 C 174.120 215.203,174.796 214.239,174.477 213.731 C 174.283 213.421,174.046 213.455,173.684 213.844 M167.200 224.000 C 167.200 224.947,167.453 225.004,168.229 224.229 C 169.004 223.453,168.947 223.200,168.000 223.200 C 167.467 223.200,167.200 223.467,167.200 224.000 M164.400 228.600 C 163.992 229.091,164.020 229.200,164.551 229.200 C 164.908 229.200,165.200 228.930,165.200 228.600 C 165.200 228.270,165.132 228.000,165.049 228.000 C 164.966 228.000,164.674 228.270,164.400 228.600 M150.400 242.600 C 149.992 243.091,150.020 243.200,150.551 243.200 C 150.908 243.200,151.200 242.930,151.200 242.600 C 151.200 242.270,151.132 242.000,151.049 242.000 C 150.966 242.000,150.674 242.270,150.400 242.600 M147.667 243.867 C 147.393 244.160,147.288 244.400,147.433 244.400 C 147.579 244.400,147.474 244.670,147.200 245.000 C 146.350 246.024,146.947 245.659,148.072 244.467 C 148.661 243.843,148.922 243.333,148.653 243.333 C 148.385 243.333,147.941 243.573,147.667 243.867 M204.200 249.200 C 204.064 249.420,204.085 249.600,204.246 249.600 C 204.407 249.600,204.171 250.005,203.722 250.500 C 202.840 251.471,202.653 252.667,203.384 252.667 C 204.179 252.667,204.616 251.840,204.635 250.300 C 204.655 248.710,204.595 248.560,204.200 249.200 M202.116 257.200 C 202.001 257.640,201.613 258.013,201.253 258.028 C 200.748 258.050,200.781 258.134,201.400 258.400 C 202.625 258.926,202.688 258.886,202.643 257.601 C 202.593 256.208,202.412 256.070,202.116 257.200 M199.544 263.172 C 198.827 263.758,198.711 264.056,199.063 264.414 C 199.416 264.774,199.510 264.709,199.463 264.143 C 199.424 263.690,199.647 263.417,200.033 263.444 C 200.382 263.469,200.667 263.244,200.667 262.944 C 200.667 262.253,200.669 262.252,199.544 263.172 M132.400 264.600 C 131.992 265.091,132.020 265.200,132.551 265.200 C 132.908 265.200,133.200 264.930,133.200 264.600 C 133.200 264.270,133.132 264.000,133.049 264.000 C 132.966 264.000,132.674 264.270,132.400 264.600 M197.149 266.925 C 197.121 266.966,197.057 267.375,197.007 267.833 C 196.865 269.130,198.434 268.691,198.672 267.367 C 198.730 267.047,197.341 266.643,197.149 266.925 M191.254 277.334 C 190.881 277.784,190.907 277.955,191.377 278.136 C 192.104 278.415,192.460 277.944,192.038 277.262 C 191.797 276.871,191.626 276.887,191.254 277.334 M19.859 347.409 C 20.166 348.210,21.138 348.457,21.027 347.706 C 20.976 347.354,20.646 347.024,20.294 346.973 C 19.907 346.916,19.736 347.088,19.859 347.409 " stroke="none" fill="#5d8697" fill-rule="evenodd"></path><path id="path2" d="M174.462 213.800 C 174.567 214.407,174.407 214.572,173.800 214.483 C 173.141 214.387,173.106 214.439,173.600 214.777 C 174.095 215.116,174.101 215.189,173.633 215.194 C 173.322 215.197,173.182 215.316,173.324 215.457 C 173.465 215.598,173.827 215.510,174.127 215.260 C 174.428 215.011,174.786 214.920,174.924 215.058 C 175.062 215.195,175.096 214.900,175.000 214.400 C 174.782 213.270,174.272 212.701,174.462 213.800 M171.704 219.016 C 171.871 219.195,171.601 219.799,171.104 220.358 C 170.353 221.203,170.336 221.276,171.000 220.788 C 171.740 220.244,171.759 220.252,171.251 220.900 C 170.949 221.285,170.364 221.600,169.951 221.600 C 169.472 221.600,169.200 221.884,169.200 222.382 C 169.200 222.812,168.750 223.614,168.200 224.164 C 167.650 224.714,167.200 225.332,167.200 225.537 C 167.200 225.743,166.885 225.886,166.500 225.856 C 166.091 225.823,165.798 226.079,165.795 226.472 C 165.792 226.841,165.657 227.276,165.495 227.438 C 165.333 227.601,165.200 228.063,165.200 228.467 C 165.200 228.982,164.903 229.200,164.200 229.200 C 163.612 229.200,163.200 229.430,163.200 229.757 C 163.200 230.419,164.172 230.862,164.960 230.560 C 165.267 230.442,165.638 230.538,165.783 230.773 C 165.928 231.008,165.857 231.200,165.624 231.200 C 165.391 231.200,165.200 231.363,165.200 231.563 C 165.200 231.762,165.560 231.831,166.000 231.716 C 166.500 231.585,166.800 231.704,166.800 232.031 C 166.800 232.971,168.902 234.800,169.982 234.800 C 170.758 234.800,172.007 235.795,175.000 238.800 C 177.958 241.769,179.247 242.800,180.000 242.800 C 180.753 242.800,182.042 243.831,185.000 246.800 C 187.963 249.774,189.246 250.800,190.003 250.800 C 190.736 250.800,191.842 251.627,193.966 253.766 C 195.586 255.397,197.143 256.643,197.425 256.535 C 197.980 256.322,198.936 257.731,198.519 258.147 C 198.380 258.286,198.747 258.400,199.333 258.400 C 199.920 258.400,200.400 258.591,200.400 258.824 C 200.400 259.057,200.250 259.155,200.067 259.041 C 199.883 258.928,199.733 259.083,199.733 259.386 C 199.733 259.818,199.924 259.793,200.623 259.268 C 201.245 258.802,201.376 258.499,201.057 258.265 C 200.780 258.063,200.943 258.005,201.470 258.120 C 202.097 258.257,202.280 258.153,202.125 257.750 C 202.007 257.442,202.079 256.967,202.285 256.695 C 202.491 256.423,202.706 255.390,202.763 254.400 C 202.827 253.286,203.163 252.281,203.644 251.763 C 204.510 250.831,205.042 249.003,204.317 249.451 C 204.022 249.634,203.993 249.538,204.230 249.162 C 204.731 248.367,204.797 243.549,204.319 242.652 C 204.037 242.122,204.049 241.983,204.360 242.175 C 204.642 242.350,204.790 242.044,204.772 241.324 C 204.747 240.335,204.702 240.296,204.400 241.000 C 204.211 241.440,204.044 241.553,204.028 241.251 C 204.005 240.800,203.889 240.794,203.377 241.219 C 202.863 241.646,202.776 241.637,202.877 241.169 C 202.945 240.858,203.270 240.376,203.600 240.099 C 204.091 239.687,203.992 239.670,203.054 240.005 C 202.092 240.349,201.946 240.318,202.142 239.807 C 202.288 239.426,202.145 239.200,201.757 239.200 C 201.417 239.200,200.598 238.660,199.938 238.000 C 199.278 237.340,198.578 236.800,198.383 236.800 C 198.187 236.800,197.115 235.990,196.000 235.000 C 194.885 234.010,193.844 233.197,193.687 233.194 C 193.529 233.191,192.336 232.201,191.036 230.994 C 189.735 229.787,188.526 228.800,188.349 228.800 C 188.172 228.800,187.115 227.990,186.000 227.000 C 184.885 226.010,183.844 225.197,183.687 225.194 C 183.529 225.191,182.370 224.232,181.111 223.063 C 179.851 221.894,178.366 220.731,177.811 220.478 C 177.255 220.224,176.800 219.743,176.800 219.409 C 176.800 219.026,176.428 218.800,175.800 218.800 C 175.250 218.800,174.800 218.980,174.800 219.200 C 174.800 219.776,173.704 219.694,173.465 219.100 C 173.307 218.709,173.256 218.712,173.232 219.114 C 173.207 219.519,173.009 219.529,172.300 219.160 C 171.805 218.902,171.537 218.838,171.704 219.016 M161.592 231.810 C 161.314 232.145,161.194 232.527,161.326 232.659 C 161.735 233.069,162.800 232.457,162.800 231.813 C 162.800 231.029,162.241 231.028,161.592 231.810 M159.711 233.700 C 158.964 234.666,158.802 235.574,159.420 235.337 C 159.739 235.214,160.000 234.864,160.000 234.557 C 160.000 234.251,160.270 234.000,160.600 234.000 C 160.930 234.000,161.200 233.820,161.200 233.600 C 161.200 233.034,160.173 233.103,159.711 233.700 M204.012 250.778 C 203.563 251.616,202.800 252.232,202.800 251.755 C 202.800 251.447,204.017 250.000,204.276 250.000 C 204.360 250.000,204.241 250.350,204.012 250.778 M200.400 260.874 C 200.400 261.355,199.995 262.191,199.500 262.732 L 198.600 263.715 199.700 263.012 C 200.660 262.397,201.377 260.000,200.600 260.000 C 200.490 260.000,200.400 260.393,200.400 260.874 M197.599 267.300 C 197.010 268.104,196.913 268.384,197.345 268.033 C 198.001 267.500,198.993 266.000,198.689 266.000 C 198.613 266.000,198.122 266.585,197.599 267.300 " stroke="none" fill="#5494a9" fill-rule="evenodd"></path><path id="path3" d="M300.400 176.600 C 299.992 177.091,300.020 177.200,300.551 177.200 C 300.908 177.200,301.200 176.930,301.200 176.600 C 301.200 176.270,301.132 176.000,301.049 176.000 C 300.966 176.000,300.674 176.270,300.400 176.600 M356.984 193.227 C 356.839 193.461,356.816 193.749,356.933 193.867 C 357.220 194.153,358.000 193.648,358.000 193.176 C 358.000 192.665,357.309 192.699,356.984 193.227 M163.370 231.066 C 163.493 231.386,163.415 231.533,163.195 231.397 C 162.978 231.263,162.800 231.450,162.800 231.814 C 162.800 232.177,162.440 232.569,162.000 232.684 C 161.560 232.799,161.200 233.142,161.200 233.447 C 161.200 233.751,160.930 234.000,160.600 234.000 C 160.270 234.000,160.000 234.252,160.000 234.561 C 160.000 234.869,159.460 235.310,158.800 235.540 C 158.140 235.770,157.600 236.226,157.600 236.553 C 157.600 236.904,157.150 237.199,156.500 237.273 C 155.601 237.377,155.402 237.596,155.413 238.470 C 155.421 239.059,155.286 239.453,155.113 239.347 C 154.941 239.240,154.800 239.343,154.800 239.576 C 154.800 239.809,154.638 239.955,154.440 239.900 C 154.242 239.845,154.077 239.960,154.074 240.155 C 154.071 240.351,153.828 240.663,153.534 240.849 C 153.113 241.116,153.136 241.189,153.639 241.194 C 153.990 241.197,154.935 240.561,155.739 239.781 C 156.738 238.810,157.200 238.561,157.200 238.993 C 157.200 239.341,157.469 239.728,157.798 239.854 C 158.126 239.981,158.296 240.245,158.174 240.442 C 158.052 240.639,158.122 240.800,158.329 240.800 C 158.536 240.800,160.186 242.195,161.996 243.900 C 163.805 245.605,165.582 247.163,165.943 247.361 C 166.304 247.560,167.361 248.415,168.291 249.261 C 169.221 250.108,170.196 250.800,170.457 250.800 C 170.718 250.800,172.061 251.835,173.440 253.100 C 177.225 256.572,179.977 258.800,180.481 258.800 C 180.729 258.800,182.061 259.835,183.440 261.100 C 186.980 264.347,189.968 266.800,190.384 266.800 C 190.579 266.800,191.278 267.340,191.938 268.000 C 192.598 268.660,193.040 269.200,192.920 269.200 C 192.800 269.200,192.924 269.468,193.196 269.796 C 193.468 270.123,193.838 270.300,194.018 270.189 C 194.198 270.078,194.458 270.170,194.596 270.393 C 194.734 270.617,195.117 270.800,195.447 270.800 C 195.777 270.800,195.937 270.622,195.803 270.405 C 195.663 270.178,195.823 270.111,196.179 270.247 C 196.685 270.441,196.800 270.144,196.800 268.643 C 196.800 266.855,197.035 266.580,198.433 266.730 C 198.676 266.757,198.750 266.346,198.833 264.500 C 198.860 263.895,199.201 263.040,199.590 262.600 C 201.106 260.887,200.929 258.400,199.291 258.400 C 198.727 258.400,198.380 258.286,198.519 258.147 C 198.936 257.731,197.980 256.322,197.425 256.535 C 197.143 256.643,195.586 255.397,193.966 253.766 C 191.842 251.627,190.736 250.800,190.003 250.800 C 189.246 250.800,187.963 249.774,185.000 246.800 C 182.042 243.831,180.753 242.800,180.000 242.800 C 179.247 242.800,177.958 241.769,175.000 238.800 C 172.007 235.795,170.758 234.800,169.982 234.800 C 168.902 234.800,166.800 232.971,166.800 232.031 C 166.800 231.704,166.500 231.585,166.000 231.716 C 165.560 231.831,165.200 231.762,165.200 231.563 C 165.200 231.363,165.410 231.200,165.667 231.200 C 166.676 231.200,165.472 230.608,164.347 230.551 C 163.455 230.506,163.206 230.638,163.370 231.066 M372.984 357.227 C 372.839 357.461,372.816 357.749,372.933 357.867 C 373.220 358.153,374.000 357.648,374.000 357.176 C 374.000 356.665,373.309 356.699,372.984 357.227 " stroke="none" fill="#4e9cb8" fill-rule="evenodd"></path><path id="path4" d="M179.776 161.787 C 178.881 162.464,179.290 162.594,180.417 161.991 C 180.972 161.694,181.582 161.749,182.640 162.191 C 184.779 163.085,185.297 162.917,183.256 161.991 C 181.170 161.045,180.788 161.022,179.776 161.787 M155.642 239.863 C 154.422 241.064,153.684 241.365,152.104 241.308 C 151.832 241.298,151.703 241.443,151.819 241.631 C 152.093 242.073,150.564 243.600,149.847 243.600 C 149.542 243.600,149.199 243.960,149.084 244.400 C 148.959 244.879,148.538 245.200,148.037 245.200 C 147.577 245.200,147.200 245.388,147.200 245.618 C 147.200 245.847,146.885 245.982,146.500 245.918 C 146.033 245.839,145.837 246.024,145.911 246.472 C 145.989 246.945,145.692 247.183,144.911 247.272 C 144.231 247.350,143.651 247.740,143.416 248.275 C 143.204 248.757,142.696 249.238,142.286 249.346 C 141.876 249.453,141.443 249.914,141.324 250.370 C 141.181 250.917,140.782 251.200,140.153 251.200 C 139.357 251.200,139.200 251.401,139.200 252.424 C 139.200 253.172,139.038 253.547,138.782 253.389 C 138.098 252.966,137.155 254.028,137.434 254.907 C 137.596 255.418,137.534 255.606,137.257 255.436 C 137.022 255.290,136.441 255.559,135.967 256.033 C 135.273 256.727,135.212 256.962,135.653 257.241 C 136.459 257.752,138.709 257.674,138.890 257.129 C 139.106 256.483,139.919 257.048,140.756 258.424 C 141.780 260.107,151.603 268.800,152.481 268.800 C 152.729 268.800,154.061 269.835,155.440 271.100 C 158.881 274.256,161.965 276.800,162.351 276.800 C 162.527 276.800,163.735 277.787,165.036 278.994 C 166.336 280.201,167.529 281.191,167.687 281.194 C 167.844 281.197,168.885 282.010,170.000 283.000 C 171.115 283.990,172.187 284.800,172.383 284.800 C 172.578 284.800,173.278 285.340,173.938 286.000 C 174.676 286.737,175.553 287.200,176.212 287.200 C 177.029 287.200,177.227 287.352,177.041 287.836 C 176.724 288.663,177.190 289.464,177.601 288.798 C 177.780 288.508,177.972 288.908,178.074 289.787 C 178.215 290.992,178.068 291.403,177.269 292.031 C 176.574 292.578,176.472 292.800,176.917 292.800 C 177.586 292.800,178.800 291.768,178.800 291.199 C 178.800 291.010,179.205 290.798,179.700 290.728 C 180.278 290.646,180.646 290.278,180.728 289.700 C 180.798 289.205,181.036 288.800,181.256 288.800 C 181.775 288.800,182.800 287.775,182.800 287.256 C 182.800 287.036,183.205 286.798,183.700 286.728 C 184.270 286.647,184.646 286.279,184.725 285.725 C 184.802 285.179,185.179 284.802,185.725 284.725 C 186.270 284.647,186.647 284.270,186.725 283.725 C 186.802 283.181,187.179 282.802,187.721 282.725 C 188.219 282.653,188.653 282.258,188.735 281.800 C 188.813 281.360,189.295 280.550,189.805 280.000 C 190.315 279.450,190.792 278.550,190.866 278.000 C 190.942 277.431,191.388 276.830,191.900 276.605 C 192.544 276.323,192.802 275.868,192.806 275.005 C 192.811 274.080,192.902 273.939,193.200 274.400 C 193.549 274.940,193.772 274.690,193.647 273.900 C 193.621 273.735,193.735 273.621,193.900 273.647 C 194.692 273.772,194.940 273.548,194.400 273.194 C 193.867 272.844,193.867 272.756,194.400 272.400 C 194.933 272.044,194.933 271.956,194.400 271.606 C 193.949 271.310,193.933 271.211,194.333 271.206 C 194.627 271.203,194.784 270.975,194.683 270.700 C 194.583 270.425,194.315 270.239,194.088 270.287 C 193.862 270.335,193.457 270.110,193.189 269.787 C 192.921 269.464,192.800 269.200,192.920 269.200 C 193.040 269.200,192.598 268.660,191.938 268.000 C 191.278 267.340,190.579 266.800,190.384 266.800 C 189.968 266.800,186.980 264.347,183.440 261.100 C 182.061 259.835,180.729 258.800,180.481 258.800 C 179.977 258.800,177.225 256.572,173.440 253.100 C 172.061 251.835,170.718 250.800,170.457 250.800 C 170.196 250.800,169.221 250.108,168.291 249.261 C 167.361 248.415,166.304 247.560,165.943 247.361 C 165.582 247.163,163.805 245.605,161.996 243.900 C 160.186 242.195,158.536 240.800,158.329 240.800 C 158.122 240.800,158.064 240.620,158.200 240.400 C 158.336 240.180,158.251 240.000,158.011 240.000 C 157.771 240.000,157.445 239.668,157.287 239.263 C 157.028 238.599,156.866 238.658,155.642 239.863 M133.200 260.000 C 133.200 260.501,133.624 260.501,134.400 260.000 C 134.885 259.686,134.828 259.611,134.100 259.606 C 133.605 259.603,133.200 259.780,133.200 260.000 " stroke="none" fill="#4ca4c1" fill-rule="evenodd"></path></g></svg>