<?xml version="1.0" standalone="no"?>
<!DOCTYPE svg PUBLIC "-//W3C//DTD SVG 20010904//EN"
 "http://www.w3.org/TR/2001/REC-SVG-20010904/DTD/svg10.dtd">
<svg version="1.0" xmlns="http://www.w3.org/2000/svg"
 width="200.000000pt" height="200.000000pt" viewBox="0 0 200.000000 200.000000"
 preserveAspectRatio="xMidYMid meet">

<g transform="translate(0.000000,200.000000) scale(0.100000,-0.100000)"
fill="#000000" stroke="none">
<path d="M1124 1163 c-27 -49 -31 -52 -68 -51 -55 1 -90 -39 -83 -94 4 -33 1
-41 -25 -63 -28 -23 -29 -28 -21 -63 l10 -37 28 56 c28 56 28 56 56 42 73 -36
153 57 104 123 -13 17 -12 21 16 44 28 24 30 29 21 60 l-9 35 -29 -52z"/>
</g>
</svg>
